<svg width="1966" height="509" viewBox="0 0 1966 509" fill="none" xmlns="http://www.w3.org/2000/svg">
<rect width="1965.3" height="508.4" fill="white"/>
<path d="M549.764 159.956H572.373C574.696 159.967 577.015 160.12 579.319 160.414C581.657 160.849 583.908 161.663 585.984 162.823C588.15 164.003 589.972 165.728 591.268 167.826C592.616 170.527 593.284 173.516 593.213 176.534C593.271 180.044 592.015 183.45 589.69 186.08C587.208 188.718 583.914 190.447 580.334 190.991V191.174C584.355 191.391 588.167 193.035 591.085 195.81C592.404 197.136 593.443 198.712 594.143 200.446C594.842 202.18 595.187 204.037 595.157 205.906C595.311 209.302 594.511 212.672 592.847 215.636C591.402 218.008 589.355 219.954 586.914 221.279C584.611 222.562 582.104 223.439 579.503 223.871C577.154 224.341 574.767 224.591 572.373 224.619H549.764V159.956ZM562.734 186.081H568.019C570.84 186.17 573.648 185.666 576.262 184.601C577.449 184.079 578.474 183.247 579.228 182.192C579.96 180.998 580.314 179.61 580.242 178.211C580.324 176.632 579.973 175.061 579.228 173.667C578.513 172.575 577.476 171.733 576.262 171.257C574.999 170.695 573.651 170.35 572.274 170.235C570.794 170.174 569.277 170.144 567.737 170.144H562.734L562.734 186.081ZM562.734 214.432H568.849C570.43 214.436 572.009 214.308 573.569 214.05C575.043 213.771 576.476 213.305 577.832 212.662C579.218 212.063 580.383 211.046 581.163 209.753C581.944 208.459 582.301 206.955 582.186 205.449C582.256 203.65 581.876 201.863 581.08 200.248C580.381 199 579.313 197.999 578.022 197.382C576.705 196.63 575.26 196.129 573.76 195.902C572.151 195.78 570.519 195.719 568.849 195.719H562.734V214.432Z" fill="black"/>
<path d="M650.28 224.619H638.515V218.137H638.332C636.493 220.535 634.119 222.47 631.4 223.789C628.681 225.108 625.691 225.773 622.669 225.732C620.349 225.903 618.021 225.503 615.89 224.567C613.76 223.632 611.891 222.189 610.446 220.364C607.657 216.489 606.253 211.789 606.458 207.019V176.915H618.872V202.383C618.874 203.1 618.938 203.814 619.063 204.519C619.063 205.251 619.093 206.029 619.154 206.837C619.263 208.373 619.542 209.892 619.986 211.367C620.497 212.664 621.326 213.812 622.395 214.707C623.694 215.695 625.303 216.187 626.932 216.094C628.962 216.179 630.958 215.56 632.583 214.341C633.986 213.311 635.104 211.941 635.831 210.36C636.687 208.771 637.25 207.04 637.494 205.251C637.735 203.594 637.86 201.923 637.868 200.249V176.915H650.28V224.619Z" fill="black"/>
<path d="M664.266 176.915H676.032V183.397H676.222C678.013 180.948 680.376 178.976 683.105 177.652C685.834 176.328 688.846 175.693 691.877 175.802C694.216 175.641 696.559 176.035 698.717 176.952C700.874 177.869 702.784 179.283 704.291 181.079C706.97 185.032 708.302 189.744 708.089 194.515V224.62H695.675V199.136C695.675 197.595 695.644 196.025 695.583 194.423C695.546 192.924 695.23 191.445 694.653 190.062C694.263 188.703 693.454 187.503 692.342 186.63C690.922 185.766 689.275 185.346 687.615 185.425C685.695 185.334 683.802 185.893 682.239 187.011C680.86 188.088 679.725 189.445 678.907 190.992C678.106 192.6 677.544 194.316 677.237 196.086C676.884 197.792 676.698 199.528 676.681 201.271V224.62H664.267L664.266 176.915Z" fill="black"/>
<path d="M753.856 219.251H753.665C751.876 221.368 749.629 223.052 747.094 224.175C744.559 225.297 741.803 225.83 739.032 225.733C736.003 225.939 732.974 225.335 730.256 223.985C727.537 222.634 725.226 220.585 723.56 218.046C720.581 212.725 719.016 206.729 719.016 200.63C719.016 194.532 720.581 188.535 723.56 183.214C725.309 180.969 727.534 179.141 730.075 177.86C732.615 176.579 735.409 175.877 738.253 175.806C741.098 175.734 743.922 176.295 746.524 177.447C749.126 178.598 751.44 180.313 753.299 182.467H753.482V155.137H765.896V224.619H753.856L753.856 219.251ZM731.987 200.63C731.938 204.152 732.7 207.637 734.213 210.818C735.001 212.281 736.109 213.548 737.454 214.523C738.886 215.617 740.656 216.173 742.456 216.094C744.345 216.181 746.207 215.627 747.741 214.523C749.128 213.568 750.27 212.298 751.073 210.818C751.941 209.254 752.566 207.567 752.926 205.815C753.226 204.103 753.382 202.368 753.391 200.63C753.405 197.109 752.546 193.641 750.89 190.534C750.035 189.059 748.863 187.793 747.459 186.828C745.907 185.858 744.102 185.37 742.273 185.425C740.561 185.37 738.87 185.827 737.419 186.737C735.967 187.647 734.819 188.969 734.122 190.534C733.36 192.08 732.828 193.729 732.543 195.429C732.183 197.14 731.997 198.882 731.987 200.63V200.63Z" fill="black"/>
<path d="M818.145 221.933C813.11 224.622 807.454 225.932 801.75 225.731C798.393 226.151 794.984 225.802 791.782 224.711C788.579 223.619 785.667 221.813 783.265 219.43C780.864 217.047 779.036 214.148 777.92 210.954C776.804 207.76 776.429 204.354 776.824 200.994C776.603 194.579 778.563 188.278 782.382 183.119C784.385 180.691 786.927 178.764 789.807 177.492C792.686 176.221 795.824 175.642 798.967 175.799C802.42 175.441 805.906 175.996 809.077 177.409C812.247 178.823 814.99 181.044 817.032 183.851C820.433 190.221 822.036 197.396 821.668 204.607H788.681C788.73 206.282 789.126 207.929 789.844 209.444C790.562 210.959 791.586 212.308 792.852 213.407C795.485 215.631 798.855 216.789 802.3 216.655C805.208 216.674 808.096 216.167 810.825 215.16C813.378 214.321 815.833 213.207 818.145 211.836L818.145 221.933ZM809.81 196.083C809.794 193.266 808.919 190.521 807.302 188.214C806.395 187.091 805.232 186.201 803.91 185.62C802.589 185.039 801.148 184.783 799.707 184.874C798.247 184.815 796.79 185.065 795.434 185.609C794.078 186.153 792.852 186.979 791.838 188.031C789.917 190.288 788.806 193.122 788.681 196.083L809.81 196.083Z" fill="black"/>
<path d="M860.946 186.919C859.257 186.269 857.524 185.739 855.761 185.333C853.801 185.004 851.815 184.851 849.828 184.875C848.166 184.859 846.521 185.207 845.009 185.897C844.224 186.287 843.57 186.897 843.126 187.653C842.682 188.408 842.467 189.277 842.508 190.152C842.569 191.952 843.713 193.217 845.939 193.949C847.085 194.424 848.259 194.826 849.455 195.154C850.759 195.536 852.055 195.963 853.351 196.451C854.757 196.883 856.121 197.444 857.423 198.128C858.641 198.848 859.763 199.719 860.763 200.72C861.836 201.811 862.685 203.101 863.264 204.518C863.862 206.337 864.143 208.246 864.095 210.16C864.216 212.515 863.715 214.86 862.641 216.959C861.567 219.058 859.96 220.837 857.98 222.117C853.776 224.594 848.964 225.846 844.087 225.731C839.323 225.667 834.588 224.98 830.003 223.688L830.742 213.5C834.488 215.567 838.695 216.653 842.973 216.657C844.81 216.627 846.616 216.184 848.258 215.361C849.146 214.992 849.899 214.357 850.412 213.544C850.926 212.73 851.174 211.777 851.124 210.816C851.168 209.733 850.878 208.663 850.293 207.751C849.614 206.972 848.756 206.37 847.792 205.997C845.371 205.049 842.896 204.245 840.38 203.587C839.053 203.143 837.754 202.618 836.491 202.016C835.199 201.401 834.01 200.588 832.968 199.607C831.89 198.574 831.065 197.305 830.559 195.901C829.83 194.24 829.481 192.437 829.537 190.624C829.401 188.387 829.872 186.154 830.9 184.163C831.929 182.171 833.475 180.494 835.378 179.308C839.231 176.894 843.712 175.674 848.257 175.8C850.796 175.778 853.334 175.931 855.852 176.258C857.949 176.624 859.924 177.066 861.777 177.554L860.946 186.919Z" fill="black"/>
<path d="M877.066 179.417C882.286 177.087 887.928 175.857 893.644 175.802C907.545 175.619 914.402 182.319 914.217 195.902V202.018C914.217 206.654 914.278 210.635 914.4 213.959C914.522 217.482 914.707 221.036 914.956 224.62H904.022C903.693 222.254 903.507 219.87 903.465 217.482H903.282C901.834 220.044 899.68 222.136 897.075 223.506C894.468 224.959 891.535 225.725 888.55 225.733C884.455 225.746 880.462 224.448 877.158 222.027C875.467 220.866 874.096 219.298 873.172 217.466C872.248 215.635 871.802 213.6 871.874 211.55C871.736 208.465 872.58 205.417 874.283 202.842C875.693 200.69 877.688 198.987 880.033 197.931C882.521 196.761 885.176 195.984 887.902 195.628C890.608 195.318 893.33 195.16 896.054 195.155H902.909C903.065 193.706 902.915 192.241 902.468 190.853C902.022 189.466 901.289 188.188 900.316 187.103C897.944 185.427 895.059 184.639 892.165 184.876C886.812 184.905 881.624 186.731 877.433 190.061L877.066 179.417ZM883.731 210.818C883.676 211.686 883.864 212.552 884.273 213.32C884.683 214.087 885.297 214.726 886.049 215.164C887.703 216.225 889.645 216.747 891.608 216.659C893.299 216.722 894.98 216.366 896.499 215.62C898.019 214.875 899.33 213.765 900.316 212.389C902.15 209.451 903.054 206.027 902.908 202.567H895.405C894.661 202.567 893.919 202.629 893.186 202.75C891.631 202.933 890.105 203.307 888.641 203.864C887.293 204.37 886.11 205.235 885.217 206.365C884.179 207.609 883.648 209.199 883.731 210.818H883.731Z" fill="black"/>
<path d="M927.462 176.913H939.045V183.578H939.228C940.933 180.97 943.298 178.86 946.083 177.462C948.38 176.404 950.874 175.837 953.403 175.799C956.333 175.575 959.26 176.264 961.782 177.771C964.305 179.279 966.298 181.531 967.487 184.218C968.899 181.443 971.173 179.2 973.969 177.828C976.576 176.484 979.469 175.789 982.402 175.799C984.694 175.568 987.006 175.933 989.115 176.857C991.224 177.782 993.059 179.235 994.443 181.076C996.697 185.181 997.757 189.836 997.5 194.512V224.617H985.086V196.175C985.149 193.799 984.869 191.426 984.255 189.129C983.844 188.058 983.135 187.126 982.211 186.445C980.923 185.69 979.439 185.335 977.949 185.423C976.202 185.326 974.484 185.892 973.137 187.009C971.826 188.08 970.833 189.488 970.262 191.081C969.636 192.718 969.231 194.431 969.058 196.175C968.823 197.924 968.698 199.686 968.684 201.451V224.617H956.27V196.175C956.336 193.798 956.056 191.425 955.439 189.129C955.028 188.06 954.322 187.129 953.403 186.445C952.114 185.691 950.631 185.336 949.14 185.423C947.392 185.327 945.671 185.893 944.321 187.009C943.011 188.078 942.019 189.487 941.455 191.081C940.825 192.717 940.42 194.43 940.25 196.175C940.011 197.924 939.886 199.686 939.876 201.451V224.617H927.462L927.462 176.913Z" fill="black"/>
<path d="M1015.29 185.99H1006.12V176.916H1015.29V167.37L1027.7 163.389V176.917H1038.73V185.991H1027.7V208.226C1027.59 210.094 1028 211.956 1028.91 213.594C1029.36 214.413 1030.03 215.085 1030.85 215.528C1031.68 215.972 1032.61 216.169 1033.54 216.096C1035.5 216.19 1037.46 215.742 1039.19 214.799L1039.56 224.621C1036.57 225.432 1033.48 225.807 1030.39 225.734C1028.32 225.953 1026.23 225.7 1024.27 224.994C1022.31 224.288 1020.54 223.147 1019.08 221.656C1017.63 220.166 1016.53 218.366 1015.88 216.391C1015.22 214.416 1015.02 212.318 1015.29 210.254L1015.29 185.99Z" fill="black"/>
<path d="M1079.95 185.989H1070.78V176.915H1079.95V170.235C1079.75 165.953 1081.17 161.752 1083.93 158.477C1085.36 156.963 1087.11 155.779 1089.05 155.01C1090.98 154.241 1093.06 153.904 1095.14 154.024C1098.2 154.051 1101.24 154.393 1104.22 155.045L1103.2 165.324C1102.57 164.853 1101.89 164.45 1101.17 164.12C1100.09 163.774 1098.96 163.619 1097.83 163.662C1096.98 163.61 1096.14 163.79 1095.39 164.183C1094.64 164.575 1094.01 165.165 1093.57 165.889C1092.74 167.457 1092.33 169.21 1092.37 170.983V176.915H1103.2V185.989H1092.37V224.619H1079.95L1079.95 185.989Z" fill="black"/>
<path d="M1156.47 224.618H1144.71V218.137H1144.52C1142.69 220.534 1140.31 222.469 1137.59 223.788C1134.87 225.107 1131.88 225.772 1128.86 225.731C1126.54 225.902 1124.21 225.502 1122.08 224.566C1119.95 223.631 1118.08 222.188 1116.64 220.363C1113.85 216.488 1112.45 211.788 1112.65 207.018V176.914H1125.06V202.383C1125.07 203.099 1125.13 203.813 1125.26 204.518C1125.26 205.25 1125.29 206.028 1125.35 206.836C1125.46 208.372 1125.73 209.891 1126.18 211.366C1126.69 212.663 1127.52 213.811 1128.59 214.706C1129.89 215.694 1131.5 216.186 1133.12 216.093C1135.15 216.178 1137.15 215.559 1138.78 214.34C1140.18 213.31 1141.3 211.941 1142.02 210.359C1142.88 208.77 1143.44 207.039 1143.69 205.25C1143.93 203.594 1144.05 201.922 1144.06 200.248V176.914H1156.47L1156.47 224.618ZM1119.88 168.206V157.454H1130.62V168.206H1119.88ZM1149.71 157.454V168.206H1138.96V157.454H1149.71Z" fill="black"/>
<path d="M1170.74 176.915H1181.77V187.743H1181.95C1182.54 184.841 1183.95 182.172 1186.02 180.057C1187.12 178.732 1188.49 177.664 1190.04 176.929C1191.6 176.194 1193.29 175.809 1195.01 175.802C1196.29 175.806 1197.56 175.928 1198.81 176.168V188.673C1197.06 187.907 1195.16 187.557 1193.25 187.651C1192.21 187.587 1191.16 187.735 1190.17 188.087C1189.18 188.438 1188.28 188.985 1187.51 189.695C1186.08 191.109 1185.03 192.861 1184.45 194.789C1183.82 196.834 1183.45 198.95 1183.34 201.087C1183.22 203.253 1183.15 205.251 1183.15 207.111V224.619H1170.74L1170.74 176.915Z" fill="black"/>
<path d="M1234.66 159.956H1247.63V224.619H1234.66V159.956Z" fill="black"/>
<path d="M1261.62 176.915H1273.38V183.397H1273.58C1275.36 180.947 1277.73 178.973 1280.46 177.649C1283.19 176.325 1286.2 175.691 1289.23 175.802C1291.57 175.641 1293.91 176.035 1296.07 176.952C1298.23 177.869 1300.14 179.283 1301.64 181.079C1304.32 185.034 1305.64 189.746 1305.43 194.515V224.62H1293.01V199.136C1293.01 197.595 1292.98 196.025 1292.92 194.423C1292.88 192.926 1292.57 191.447 1292.01 190.062C1291.62 188.699 1290.81 187.496 1289.69 186.63C1288.27 185.763 1286.62 185.343 1284.96 185.425C1283.04 185.334 1281.15 185.893 1279.59 187.011C1278.21 188.088 1277.08 189.445 1276.26 190.992C1275.46 192.6 1274.9 194.316 1274.59 196.086C1274.24 197.792 1274.05 199.528 1274.03 201.271V224.62H1261.62L1261.62 176.915Z" fill="black"/>
<path d="M1323.97 185.989H1314.79V176.915H1323.97V170.235C1323.76 165.953 1325.19 161.752 1327.95 158.477C1329.38 156.963 1331.13 155.779 1333.06 155.01C1335 154.241 1337.08 153.904 1339.16 154.024C1342.21 154.05 1345.25 154.392 1348.23 155.045L1347.23 165.324C1346.59 164.857 1345.9 164.453 1345.18 164.12C1344.11 163.775 1342.98 163.62 1341.84 163.662C1341 163.61 1340.16 163.79 1339.41 164.183C1338.66 164.575 1338.03 165.165 1337.59 165.889C1336.76 167.457 1336.35 169.21 1336.39 170.983V176.915H1347.23V185.989H1336.39V224.619H1323.97V185.989Z" fill="black"/>
<path d="M1353.62 201.088C1353.45 197.651 1354.01 194.217 1355.25 191.009C1356.5 187.801 1358.4 184.89 1360.85 182.467C1365.65 178.019 1372 175.626 1378.54 175.803C1385.14 175.607 1391.55 177.998 1396.41 182.467C1400.16 185.927 1402.76 190.453 1403.85 195.434C1404.95 200.415 1404.5 205.613 1402.55 210.327C1400.6 215.041 1397.25 219.045 1392.96 221.8C1388.67 224.554 1383.64 225.927 1378.54 225.733C1375.24 225.914 1371.94 225.402 1368.86 224.231C1365.77 223.06 1362.96 221.256 1360.62 218.935C1358.27 216.613 1356.43 213.826 1355.23 210.752C1354.02 207.678 1353.47 204.387 1353.62 201.088H1353.62ZM1366.58 199.609C1366.58 200.537 1366.64 201.464 1366.76 202.385C1366.89 203.437 1367.05 204.428 1367.24 205.343C1367.57 207.224 1368.19 209.041 1369.08 210.727C1369.97 212.288 1371.25 213.595 1372.79 214.524C1374.49 215.638 1376.5 216.188 1378.54 216.095C1380.65 216.173 1382.73 215.661 1384.56 214.616C1386.1 213.687 1387.38 212.38 1388.27 210.818C1389.21 209.157 1389.83 207.338 1390.11 205.45C1390.42 203.518 1390.57 201.565 1390.57 199.609C1390.67 196.087 1389.67 192.623 1387.7 189.696C1386.64 188.297 1385.24 187.177 1383.65 186.433C1382.05 185.689 1380.3 185.344 1378.54 185.426C1376.81 185.354 1375.09 185.715 1373.54 186.477C1371.99 187.238 1370.65 188.377 1369.65 189.788C1367.58 192.639 1366.5 196.088 1366.58 199.609V199.609Z" fill="black"/>
<path d="M1414.74 176.915H1425.77V187.743H1425.95C1426.55 184.843 1427.97 182.175 1430.04 180.057C1431.13 178.731 1432.5 177.662 1434.06 176.927C1435.61 176.192 1437.3 175.807 1439.02 175.802C1440.3 175.806 1441.57 175.928 1442.82 176.168V188.673C1441.07 187.908 1439.17 187.558 1437.27 187.651C1436.22 187.586 1435.17 187.733 1434.18 188.085C1433.2 188.436 1432.29 188.984 1431.52 189.695C1430.09 191.11 1429.03 192.861 1428.45 194.789C1427.83 196.835 1427.46 198.951 1427.36 201.087C1427.22 203.253 1427.16 205.251 1427.16 207.111V224.619H1414.74L1414.74 176.915Z" fill="black"/>
<path d="M1451.53 176.914H1463.1V183.578H1463.29C1465 180.971 1467.36 178.862 1470.15 177.463C1472.45 176.404 1474.94 175.838 1477.47 175.8C1480.4 175.575 1483.32 176.264 1485.85 177.772C1488.37 179.28 1490.36 181.532 1491.55 184.218C1492.96 181.445 1495.23 179.203 1498.03 177.828C1500.64 176.487 1503.53 175.792 1506.46 175.8C1508.75 175.568 1511.07 175.932 1513.18 176.856C1515.29 177.781 1517.12 179.234 1518.51 181.077C1520.76 185.181 1521.82 189.837 1521.56 194.512V224.617H1509.14V196.175C1509.21 193.799 1508.93 191.426 1508.32 189.129C1507.91 188.06 1507.2 187.129 1506.28 186.445C1504.99 185.692 1503.51 185.337 1502.02 185.423C1500.27 185.326 1498.55 185.893 1497.2 187.009C1495.89 188.082 1494.9 189.489 1494.32 191.081C1493.7 192.72 1493.3 194.433 1493.13 196.175C1492.89 197.924 1492.76 199.686 1492.75 201.452V224.618H1480.34V196.175C1480.4 193.799 1480.12 191.426 1479.51 189.129C1479.1 188.06 1478.39 187.129 1477.47 186.445C1476.18 185.691 1474.69 185.335 1473.2 185.423C1471.45 185.326 1469.74 185.893 1468.39 187.009C1467.08 188.082 1466.09 189.489 1465.51 191.081C1464.89 192.719 1464.48 194.432 1464.31 196.175C1464.07 197.925 1463.95 199.687 1463.94 201.452V224.618H1451.53L1451.53 176.914Z" fill="black"/>
<path d="M1537.42 179.417C1542.64 177.088 1548.28 175.858 1554 175.802C1567.89 175.619 1574.75 182.319 1574.57 195.902V202.018C1574.57 206.654 1574.63 210.635 1574.75 213.959C1574.88 217.482 1575.06 221.036 1575.3 224.62H1564.38C1564.04 222.255 1563.86 219.871 1563.82 217.482H1563.64C1562.19 220.044 1560.03 222.136 1557.43 223.506C1554.82 224.961 1551.89 225.727 1548.9 225.733C1544.81 225.744 1540.82 224.446 1537.51 222.027C1535.82 220.866 1534.45 219.297 1533.53 217.465C1532.61 215.634 1532.16 213.599 1532.24 211.55C1532.09 208.464 1532.93 205.413 1534.64 202.842C1536.05 200.69 1538.04 198.985 1540.38 197.931C1542.87 196.76 1545.53 195.983 1548.26 195.628C1550.97 195.318 1553.69 195.16 1556.41 195.155H1563.27C1563.42 193.706 1563.27 192.241 1562.83 190.854C1562.38 189.467 1561.65 188.189 1560.68 187.103C1558.3 185.429 1555.41 184.641 1552.52 184.876C1547.17 184.908 1541.98 186.733 1537.79 190.061L1537.42 179.417ZM1544.08 210.818C1544.03 211.686 1544.22 212.552 1544.63 213.32C1545.04 214.087 1545.65 214.726 1546.4 215.164C1548.06 216.225 1550 216.747 1551.97 216.659C1553.66 216.722 1555.34 216.364 1556.86 215.619C1558.38 214.874 1559.69 213.764 1560.68 212.389C1562.51 209.449 1563.41 206.027 1563.27 202.567H1555.77C1555.02 202.567 1554.28 202.628 1553.54 202.75C1551.98 202.933 1550.46 203.307 1549 203.864C1547.65 204.372 1546.46 205.236 1545.56 206.365C1544.53 207.614 1544.01 209.201 1544.08 210.818V210.818Z" fill="black"/>
<path d="M1592.06 185.99H1582.9V176.916H1592.06V167.37L1604.48 163.389V176.917H1615.5V185.991H1604.48V208.226C1604.37 210.093 1604.78 211.954 1605.68 213.594C1606.13 214.413 1606.81 215.085 1607.63 215.528C1608.45 215.972 1609.39 216.169 1610.32 216.096C1612.29 216.188 1614.24 215.74 1615.98 214.799L1616.34 224.621C1613.36 225.432 1610.27 225.807 1607.18 225.734C1605.11 225.953 1603.01 225.701 1601.05 224.995C1599.09 224.289 1597.32 223.148 1595.87 221.658C1594.41 220.169 1593.31 218.368 1592.66 216.393C1592 214.418 1591.79 212.319 1592.06 210.254V185.99Z" fill="black"/>
<path d="M1625.51 156.341H1637.92V168.206H1625.51V156.341ZM1625.51 176.914H1637.92V224.619H1625.51V176.914Z" fill="black"/>
<path d="M1652.47 155.137H1664.89V195.994H1665.08L1679.89 176.916H1694.53L1676.75 198.221L1696.76 224.62H1681L1665.08 201.454H1664.89V224.62H1652.47V155.137Z" fill="black"/>
<path d="M1775.68 224.619H1763.92V218.137H1763.74C1761.9 220.535 1759.53 222.47 1756.81 223.789C1754.09 225.108 1751.1 225.773 1748.08 225.732C1745.75 225.902 1743.43 225.502 1741.3 224.566C1739.16 223.631 1737.29 222.188 1735.85 220.364C1733.06 216.487 1731.66 211.788 1731.87 207.019V176.915H1744.28V202.383C1744.28 203.099 1744.34 203.813 1744.46 204.519C1744.46 205.251 1744.49 206.029 1744.55 206.837C1744.67 208.373 1744.95 209.892 1745.39 211.367C1745.9 212.665 1746.73 213.814 1747.8 214.707C1749.1 215.696 1750.72 216.188 1752.35 216.094C1754.37 216.177 1756.37 215.557 1757.99 214.341C1759.39 213.309 1760.51 211.94 1761.24 210.36C1762.09 208.769 1762.65 207.039 1762.9 205.251C1763.14 203.594 1763.26 201.923 1763.27 200.249V176.915H1775.68L1775.68 224.619Z" fill="black"/>
<path d="M1789.68 176.916H1801.45V183.398H1801.64C1803.43 180.95 1805.79 178.977 1808.52 177.653C1811.24 176.329 1814.25 175.694 1817.28 175.803C1819.62 175.64 1821.97 176.034 1824.13 176.951C1826.28 177.868 1828.19 179.283 1829.7 181.079C1832.38 185.033 1833.71 189.745 1833.5 194.515V224.62H1821.08V199.136C1821.08 197.596 1821.05 196.025 1820.99 194.424C1820.95 192.926 1820.64 191.448 1820.08 190.062C1819.68 188.705 1818.87 187.505 1817.76 186.631C1816.34 185.765 1814.69 185.346 1813.03 185.426C1811.11 185.335 1809.22 185.894 1807.66 187.012C1806.28 188.091 1805.14 189.447 1804.32 190.992C1803.52 192.598 1802.96 194.315 1802.66 196.086C1802.3 197.791 1802.11 199.528 1802.09 201.271V224.62H1789.68L1789.68 176.916Z" fill="black"/>
<path d="M1879.26 219.251H1879.08C1877.29 221.368 1875.04 223.051 1872.5 224.174C1869.97 225.296 1867.21 225.829 1864.44 225.733C1861.41 225.938 1858.38 225.334 1855.66 223.984C1852.94 222.633 1850.63 220.584 1848.96 218.046C1845.99 212.722 1844.43 206.727 1844.43 200.63C1844.43 194.534 1845.99 188.538 1848.96 183.214C1850.71 180.969 1852.93 179.141 1855.47 177.86C1858.02 176.579 1860.81 175.877 1863.65 175.806C1866.5 175.734 1869.32 176.295 1871.92 177.447C1874.53 178.598 1876.84 180.313 1878.7 182.467H1878.88V155.137H1891.3V224.619H1879.26L1879.26 219.251ZM1857.39 200.63C1857.35 204.151 1858.11 207.636 1859.62 210.818C1860.41 212.283 1861.52 213.55 1862.87 214.523C1864.3 215.618 1866.07 216.175 1867.87 216.094C1869.76 216.18 1871.62 215.626 1873.15 214.523C1874.54 213.566 1875.68 212.297 1876.49 210.818C1877.35 209.254 1877.98 207.567 1878.33 205.815C1878.63 204.103 1878.78 202.368 1878.79 200.63C1878.81 197.109 1877.95 193.638 1876.29 190.534C1875.44 189.057 1874.28 187.79 1872.87 186.828C1871.32 185.859 1869.51 185.371 1867.67 185.425C1865.96 185.37 1864.27 185.827 1862.82 186.737C1861.37 187.647 1860.22 188.969 1859.53 190.534C1858.76 192.078 1858.23 193.728 1857.96 195.429C1857.59 197.138 1857.4 198.882 1857.39 200.63Z" fill="black"/>
<path d="M561.53 297.805H543V287.618H593.031V297.805H574.5V352.281H561.53V297.805Z" fill="black"/>
<path d="M629.342 349.598C624.307 352.287 618.651 353.597 612.947 353.396C609.59 353.816 606.181 353.467 602.979 352.376C599.776 351.284 596.864 349.478 594.462 347.095C592.061 344.712 590.233 341.814 589.117 338.62C588.001 335.425 587.626 332.019 588.021 328.659C587.8 322.244 589.76 315.943 593.579 310.785C595.582 308.356 598.124 306.429 601.004 305.158C603.884 303.887 607.021 303.307 610.164 303.464C613.617 303.106 617.103 303.661 620.274 305.075C623.444 306.488 626.187 308.709 628.229 311.517C631.63 317.886 633.233 325.061 632.865 332.272H599.877C599.927 333.948 600.323 335.595 601.041 337.109C601.759 338.624 602.783 339.973 604.049 341.072C606.682 343.296 610.052 344.455 613.496 344.32C616.405 344.339 619.293 343.833 622.022 342.826C624.575 341.987 627.03 340.872 629.342 339.501L629.342 349.598ZM621.007 323.748C620.991 320.931 620.116 318.186 618.499 315.879C617.592 314.756 616.429 313.867 615.108 313.285C613.786 312.704 612.345 312.448 610.904 312.539C609.444 312.48 607.987 312.73 606.631 313.275C605.275 313.819 604.049 314.644 603.035 315.696C601.114 317.953 600.003 320.787 599.878 323.748L621.007 323.748Z" fill="black"/>
<path d="M644.074 282.799H656.488V352.281H644.074V282.799Z" fill="black"/>
<path d="M709.019 349.598C703.984 352.287 698.328 353.597 692.624 353.396C689.267 353.816 685.858 353.467 682.656 352.376C679.453 351.284 676.541 349.478 674.139 347.095C671.738 344.712 669.91 341.814 668.794 338.62C667.678 335.425 667.303 332.019 667.698 328.659C667.477 322.244 669.437 315.943 673.256 310.785C675.259 308.356 677.801 306.429 680.681 305.158C683.561 303.887 686.698 303.307 689.841 303.464C693.294 303.106 696.78 303.661 699.951 305.075C703.121 306.488 705.864 308.709 707.906 311.517C711.307 317.886 712.91 325.061 712.542 332.272H679.554C679.604 333.948 680 335.595 680.718 337.109C681.436 338.624 682.46 339.973 683.726 341.072C686.359 343.296 689.729 344.455 693.173 344.32C696.082 344.339 698.97 343.833 701.698 342.826C704.252 341.987 706.707 340.872 709.019 339.501L709.019 349.598ZM700.684 323.748C700.668 320.931 699.793 318.186 698.176 315.879C697.269 314.756 696.106 313.867 694.785 313.285C693.463 312.704 692.022 312.448 690.581 312.539C689.121 312.48 687.664 312.73 686.308 313.275C684.952 313.819 683.726 314.644 682.712 315.696C680.791 317.953 679.68 320.787 679.555 323.748L700.684 323.748Z" fill="black"/>
<path d="M723.751 282.799H736.165V323.655H736.348L751.172 304.577H765.812L748.022 325.882L768.031 352.281H752.285L736.348 329.115H736.165V352.281H723.751V282.799Z" fill="black"/>
<path d="M773.125 328.749C772.956 325.312 773.513 321.878 774.758 318.67C776.004 315.461 777.91 312.551 780.354 310.128C785.283 305.831 791.601 303.464 798.14 303.464C804.679 303.464 810.997 305.831 815.926 310.128C820.404 315.026 822.941 321.389 823.06 328.024C823.179 334.659 820.873 341.11 816.574 346.166C813.138 349.91 808.643 352.52 803.687 353.646C798.731 354.773 793.549 354.364 788.831 352.473C784.114 350.582 780.084 347.299 777.278 343.061C774.472 338.823 773.024 333.831 773.125 328.75L773.125 328.749ZM786.096 327.27C786.095 328.198 786.158 329.126 786.286 330.046C786.408 331.098 786.561 332.089 786.744 333.004C787.081 334.883 787.706 336.699 788.597 338.388C789.488 339.949 790.764 341.256 792.303 342.185C794.007 343.298 796.018 343.847 798.052 343.756C800.156 343.835 802.241 343.323 804.069 342.277C805.611 341.352 806.888 340.044 807.774 338.479C808.723 336.822 809.351 335.001 809.627 333.111C809.939 331.18 810.095 329.226 810.093 327.27C810.182 323.748 809.178 320.285 807.218 317.357C806.148 315.958 804.756 314.839 803.16 314.095C801.564 313.352 799.811 313.006 798.052 313.087C796.323 313.015 794.603 313.376 793.049 314.137C791.494 314.899 790.155 316.037 789.153 317.449C787.092 320.302 786.018 323.751 786.096 327.27H786.096Z" fill="black"/>
<path d="M833.807 304.578H845.39V311.243H845.573C847.278 308.635 849.643 306.525 852.428 305.127C854.726 304.069 857.219 303.502 859.749 303.465C862.679 303.24 865.606 303.929 868.128 305.436C870.65 306.944 872.643 309.196 873.833 311.883C875.245 309.108 877.519 306.865 880.314 305.493C882.922 304.149 885.815 303.454 888.748 303.464C891.039 303.233 893.351 303.598 895.461 304.522C897.57 305.447 899.405 306.9 900.788 308.741C903.043 312.846 904.102 317.501 903.846 322.177V352.282H891.432V323.84C891.494 321.464 891.214 319.091 890.601 316.794C890.19 315.723 889.48 314.791 888.557 314.11C887.269 313.355 885.785 313 884.294 313.088C882.548 312.991 880.829 313.557 879.483 314.674C878.172 315.745 877.178 317.153 876.608 318.746C875.982 320.383 875.577 322.096 875.403 323.84C875.168 325.589 875.044 327.352 875.03 329.117V352.282H862.616V323.84C862.682 321.463 862.402 319.09 861.784 316.794C861.373 315.725 860.668 314.794 859.749 314.11C858.46 313.356 856.977 313.001 855.486 313.088C853.738 312.992 852.017 313.559 850.667 314.674C849.356 315.743 848.365 317.152 847.8 318.746C847.17 320.382 846.765 322.095 846.595 323.84C846.357 325.589 846.232 327.351 846.222 329.117V352.282H833.808L833.807 304.578Z" fill="black"/>
<path d="M917.366 304.578H928.948V311.243H929.132C930.837 308.635 933.202 306.525 935.987 305.127C938.285 304.069 940.778 303.502 943.308 303.465C946.238 303.24 949.165 303.929 951.687 305.436C954.209 306.944 956.202 309.196 957.392 311.883C958.804 309.108 961.078 306.865 963.873 305.493C966.481 304.149 969.374 303.454 972.307 303.464C974.598 303.233 976.91 303.598 979.02 304.522C981.129 305.447 982.964 306.9 984.347 308.741C986.602 312.846 987.661 317.501 987.405 322.177V352.282H974.991V323.84C975.053 321.464 974.773 319.091 974.16 316.794C973.749 315.723 973.039 314.791 972.116 314.11C970.828 313.355 969.344 313 967.853 313.088C966.107 312.991 964.388 313.557 963.042 314.674C961.731 315.745 960.737 317.153 960.167 318.746C959.541 320.383 959.136 322.096 958.962 323.84C958.727 325.589 958.603 327.352 958.589 329.117V352.282H946.175V323.84C946.241 321.463 945.961 319.09 945.343 316.794C944.932 315.725 944.227 314.794 943.308 314.11C942.019 313.356 940.536 313.001 939.045 313.088C937.296 312.992 935.576 313.559 934.226 314.674C932.915 315.743 931.924 317.152 931.359 318.746C930.729 320.382 930.324 322.095 930.154 323.84C929.916 325.589 929.791 327.351 929.781 329.117V352.282H917.367L917.366 304.578Z" fill="black"/>
<path d="M1044.94 352.284H1033.17V345.802H1032.99C1031.15 348.2 1028.78 350.135 1026.06 351.454C1023.34 352.772 1020.35 353.438 1017.33 353.397C1015.01 353.568 1012.68 353.168 1010.55 352.232C1008.42 351.297 1006.55 349.853 1005.1 348.029C1002.31 344.154 1000.91 339.454 1001.11 334.684V304.58H1013.53V330.048C1013.53 330.764 1013.59 331.479 1013.72 332.184C1013.72 332.916 1013.75 333.694 1013.81 334.502C1013.92 336.038 1014.2 337.557 1014.64 339.032C1015.15 340.329 1015.98 341.477 1017.05 342.371C1018.35 343.36 1019.96 343.852 1021.59 343.759C1023.62 343.844 1025.61 343.224 1027.24 342.006C1028.64 340.976 1029.76 339.606 1030.49 338.024C1031.34 336.434 1031.91 334.704 1032.15 332.915C1032.39 331.258 1032.52 329.587 1032.52 327.912V304.58H1044.94L1044.94 352.284Z" fill="black"/>
<path d="M1058.92 304.58H1070.69V311.062H1070.88C1072.67 308.613 1075.03 306.641 1077.76 305.317C1080.49 303.993 1083.5 303.358 1086.53 303.467C1088.87 303.306 1091.22 303.7 1093.37 304.617C1095.53 305.534 1097.44 306.948 1098.95 308.744C1101.63 312.697 1102.96 317.409 1102.75 322.18V352.285H1090.33V326.8C1090.33 325.26 1090.3 323.689 1090.24 322.088C1090.2 320.589 1089.89 319.11 1089.31 317.726C1088.92 316.368 1088.11 315.168 1087 314.295C1085.58 313.431 1083.93 313.011 1082.27 313.09C1080.35 312.999 1078.46 313.558 1076.9 314.676C1075.52 315.753 1074.38 317.11 1073.56 318.657C1072.76 320.264 1072.2 321.98 1071.89 323.75C1071.54 325.457 1071.35 327.193 1071.34 328.936V352.285H1058.92L1058.92 304.58Z" fill="black"/>
<path d="M1117.01 284.006H1129.43V295.871H1117.01V284.006ZM1117.01 304.579H1129.43V352.284H1117.01V304.579Z" fill="black"/>
<path d="M1143.98 282.799H1156.39V323.655H1156.57L1171.4 304.577H1186.04L1168.25 325.882L1188.26 352.281H1172.51L1156.57 329.115H1156.39V352.281H1143.98V282.799Z" fill="black"/>
<path d="M1198.53 307.078C1203.75 304.749 1209.4 303.518 1215.11 303.463C1229.01 303.28 1235.87 309.981 1235.69 323.564V329.679C1235.69 334.316 1235.75 338.296 1235.87 341.621C1235.99 345.144 1236.18 348.697 1236.43 352.281H1225.49C1225.16 349.915 1224.98 347.532 1224.93 345.144H1224.75C1223.3 347.706 1221.15 349.797 1218.54 351.168C1215.94 352.62 1213 353.386 1210.02 353.394C1205.92 353.408 1201.93 352.109 1198.63 349.688C1196.94 348.528 1195.56 346.959 1194.64 345.128C1193.72 343.296 1193.27 341.261 1193.34 339.211C1193.2 336.127 1194.05 333.078 1195.75 330.503C1197.16 328.352 1199.16 326.648 1201.5 325.592C1203.99 324.422 1206.64 323.645 1209.37 323.289C1212.08 322.979 1214.8 322.822 1217.52 322.816H1224.38C1224.53 321.368 1224.38 319.902 1223.94 318.515C1223.49 317.127 1222.76 315.85 1221.78 314.764C1219.41 313.089 1216.53 312.301 1213.63 312.537C1208.28 312.566 1203.09 314.392 1198.9 317.723L1198.53 307.078ZM1205.2 338.479C1205.14 339.347 1205.33 340.214 1205.74 340.981C1206.15 341.749 1206.77 342.387 1207.52 342.826C1209.17 343.886 1211.11 344.408 1213.08 344.32C1214.77 344.384 1216.45 344.027 1217.97 343.282C1219.49 342.536 1220.8 341.426 1221.78 340.05C1223.62 337.112 1224.52 333.689 1224.38 330.228H1216.87C1216.13 330.229 1215.39 330.29 1214.65 330.412C1213.1 330.595 1211.57 330.968 1210.11 331.525C1208.76 332.031 1207.58 332.896 1206.69 334.026C1205.65 335.271 1205.12 336.861 1205.2 338.48V338.479Z" fill="black"/>
<path d="M1253.19 313.652H1244.02V304.577H1253.19V295.031L1265.61 291.051V304.578H1276.63V313.652H1265.61V335.888C1265.49 337.755 1265.91 339.618 1266.81 341.256C1267.26 342.074 1267.94 342.746 1268.76 343.19C1269.58 343.633 1270.51 343.83 1271.44 343.757C1273.41 343.852 1275.36 343.403 1277.09 342.461L1277.46 352.282C1274.47 353.094 1271.38 353.469 1268.29 353.395C1266.22 353.614 1264.13 353.361 1262.17 352.655C1260.21 351.948 1258.44 350.807 1256.99 349.317C1255.53 347.827 1254.44 346.027 1253.78 344.052C1253.12 342.077 1252.92 339.979 1253.19 337.915V313.652Z" fill="black"/>
<path d="M1286.64 284.006H1299.05V295.871H1286.64V284.006ZM1286.64 304.579H1299.05V352.284H1286.64V304.579Z" fill="black"/>
<path d="M1310.26 328.75C1310.09 325.312 1310.65 321.878 1311.89 318.67C1313.14 315.462 1315.05 312.552 1317.49 310.129C1322.29 305.68 1328.64 303.288 1335.18 303.464C1341.78 303.268 1348.19 305.66 1353.05 310.129C1356.8 313.589 1359.4 318.114 1360.5 323.095C1361.59 328.076 1361.14 333.274 1359.19 337.988C1357.24 342.702 1353.9 346.706 1349.6 349.461C1345.31 352.216 1340.28 353.589 1335.18 353.395C1331.88 353.575 1328.59 353.064 1325.5 351.893C1322.41 350.722 1319.61 348.917 1317.26 346.596C1314.91 344.274 1313.08 341.487 1311.87 338.413C1310.67 335.34 1310.12 332.048 1310.26 328.75H1310.26ZM1323.22 327.27C1323.22 328.199 1323.29 329.126 1323.41 330.046C1323.53 331.098 1323.7 332.09 1323.88 333.005C1324.21 334.885 1324.83 336.702 1325.73 338.388C1326.62 339.949 1327.89 341.257 1329.43 342.186C1331.14 343.299 1333.15 343.849 1335.18 343.757C1337.29 343.835 1339.37 343.322 1341.2 342.277C1342.74 341.348 1344.02 340.041 1344.91 338.48C1345.85 336.819 1346.48 334.999 1346.76 333.112C1347.06 331.18 1347.21 329.227 1347.21 327.271C1347.31 323.749 1346.31 320.285 1344.35 317.358C1343.28 315.958 1341.89 314.838 1340.29 314.094C1338.69 313.351 1336.94 313.005 1335.18 313.087C1333.45 313.015 1331.73 313.376 1330.18 314.138C1328.63 314.9 1327.29 316.038 1326.29 317.449C1324.22 320.3 1323.15 323.75 1323.22 327.27H1323.22Z" fill="black"/>
<path d="M1371.13 304.577H1382.9V311.059H1383.08C1384.87 308.611 1387.23 306.639 1389.96 305.315C1392.69 303.991 1395.7 303.356 1398.73 303.464C1401.07 303.302 1403.41 303.695 1405.57 304.612C1407.73 305.529 1409.64 306.944 1411.14 308.741C1413.82 312.694 1415.16 317.406 1414.94 322.177V352.282H1402.53V326.798C1402.53 325.257 1402.5 323.686 1402.44 322.085C1402.4 320.588 1402.09 319.109 1401.52 317.724C1401.13 316.366 1400.31 315.166 1399.2 314.292C1397.78 313.427 1396.14 313.007 1394.48 313.087C1392.56 312.996 1390.67 313.555 1389.11 314.673C1387.73 315.752 1386.59 317.108 1385.77 318.654C1384.96 320.259 1384.4 321.976 1384.1 323.748C1383.74 325.452 1383.55 327.19 1383.54 328.933V352.282H1371.13L1371.13 304.577Z" fill="black"/>
<path d="M1457 287.618H1479.6C1481.93 287.628 1484.25 287.781 1486.56 288.075C1488.9 288.508 1491.15 289.322 1493.22 290.485C1495.39 291.665 1497.21 293.389 1498.5 295.487C1499.85 298.188 1500.52 301.177 1500.45 304.196C1500.51 307.706 1499.25 311.111 1496.93 313.742C1494.45 316.376 1491.16 318.105 1487.58 318.653V318.836C1491.6 319.054 1495.4 320.698 1498.32 323.472C1499.64 324.797 1500.68 326.373 1501.38 328.107C1502.08 329.841 1502.43 331.697 1502.4 333.568C1502.56 336.964 1501.75 340.335 1500.09 343.298C1498.64 345.668 1496.59 347.614 1494.15 348.94C1491.85 350.223 1489.34 351.1 1486.74 351.533C1484.39 352.003 1482 352.253 1479.6 352.28H1457V287.618ZM1469.97 313.742H1475.26C1478.08 313.831 1480.88 313.327 1483.49 312.263C1484.68 311.741 1485.71 310.909 1486.47 309.853C1487.2 308.659 1487.55 307.272 1487.49 305.873C1487.56 304.293 1487.21 302.723 1486.47 301.328C1485.75 300.236 1484.71 299.394 1483.49 298.918C1482.23 298.358 1480.89 298.012 1479.51 297.897C1478.03 297.836 1476.52 297.805 1474.98 297.805H1469.97L1469.97 313.742ZM1469.97 342.093H1476.08C1477.67 342.098 1479.25 341.97 1480.81 341.712C1482.29 341.432 1483.72 340.966 1485.08 340.324C1486.46 339.723 1487.63 338.705 1488.41 337.412C1489.18 336.119 1489.54 334.615 1489.43 333.11C1489.5 331.311 1489.11 329.523 1488.31 327.91C1487.62 326.659 1486.55 325.656 1485.26 325.043C1483.94 324.289 1482.49 323.788 1480.99 323.564C1479.39 323.442 1477.76 323.381 1476.08 323.381H1469.97L1469.97 342.093Z" fill="black"/>
<path d="M1513.71 287.618H1526.68V352.28H1513.71V287.618Z" fill="black"/>
<path d="M1553.54 297.805H1535.01V287.618H1585.03V297.805H1566.5V352.281H1553.54L1553.54 297.805Z" fill="black"/>
<path d="M458.368 72.4035C458.368 72.4035 386.729 41 266.513 41C146.296 41 74.6572 72.4035 74.6572 72.4035C74.6572 72.4035 68.2784 211.756 95.2657 290.265C143.352 428.636 266.513 467.4 266.513 467.4C266.513 467.4 389.673 428.636 437.76 290.265C464.747 211.266 458.368 72.4035 458.368 72.4035Z" fill="#E30613"/>
<path d="M394.089 192.129V268.675H304.786V358.469H228.24V268.675H138.445V192.129H228.24V102.825H304.786V192.129H394.089Z" fill="white"/>
</svg>
