<svg xmlns="http://www.w3.org/2000/svg" viewBox="-60 -60 120 120" width="120" height="120">
  
  <polygon points="44.35,18.37 18.37,44.35 -18.37,44.35 -44.35,18.37 -44.35,-18.37 -18.37,-44.35 18.37,-44.35 44.35,-18.37" fill="none" stroke="#2ae0ff" stroke-width="2" opacity="0.5" transform="translate(-4,2)"></polygon>
  <polygon points="44.35,18.37 18.37,44.35 -18.37,44.35 -44.35,18.37 -44.35,-18.37 -18.37,-44.35 18.37,-44.35 44.35,-18.37" fill="none" stroke="#ff2a3c" stroke-width="2" opacity="0.7" transform="translate(4,-2)"></polygon>
  
  <polygon points="44.35,18.37 18.37,44.35 -18.37,44.35 -44.35,18.37 -44.35,-18.37 -18.37,-44.35 18.37,-44.35 44.35,-18.37" fill="#0d0e13" stroke="#ffffff" stroke-width="1.6"></polygon>
  
  <g stroke="#ff2a3c" stroke-width="2.2">
    <line x1="0" y1="0" x2="44.35" y2="18.37"></line>
    <line x1="0" y1="0" x2="-18.37" y2="44.35"></line>
    <line x1="0" y1="0" x2="-44.35" y2="-18.37"></line>
    <line x1="0" y1="0" x2="18.37" y2="-44.35"></line>
  </g>
  
  <g stroke="#5a5d69" stroke-width="1.2">
    <line x1="0" y1="0" x2="18.37" y2="44.35"></line>
    <line x1="0" y1="0" x2="-44.35" y2="18.37"></line>
    <line x1="0" y1="0" x2="-18.37" y2="-44.35"></line>
    <line x1="0" y1="0" x2="44.35" y2="-18.37"></line>
  </g>
  
  <rect x="-13" y="-13" width="26" height="26" transform="rotate(45)" fill="#060608" stroke="#ff2a3c" stroke-width="2.5"></rect>
  <rect x="-5.5" y="-5.5" width="11" height="11" transform="rotate(45)" fill="#ff2a3c"></rect>
</svg>