<svg xmlns="http://www.w3.org/2000/svg"
     viewBox="0 0 130 60"
     width="130px"
     height="60px">
  <path
      style="fill:#1FBBEE;"
      d="M28.963,37.081c-1.024,0.022-2.042-0.16-2.994-0.535c-0.952-0.375-1.82-0.935-2.552-1.648
    c-0.732-0.713-1.313-1.564-1.71-2.504c-0.397-0.94-0.601-1.949-0.601-2.968c0-1.019,0.204-2.028,0.601-2.968
    c0.397-0.94,0.978-1.791,1.71-2.504c0.732-0.713,1.599-1.273,2.552-1.648c0.952-0.375,1.97-0.557,2.994-0.535v-5.742
    c-2.663,0-5.266,0.786-7.479,2.258c-2.214,1.472-3.939,3.565-4.958,6.013c-1.019,2.448-1.286,5.142-0.766,7.742
    c0.519,2.599,1.802,4.986,3.684,6.86c1.883,1.874,4.282,3.15,6.893,3.667c2.611,0.517,5.318,0.252,7.778-0.762
    c2.46-1.014,4.563-2.731,6.042-4.935c1.479-2.203,2.269-4.794,2.269-7.444h-5.773c0,1.005-0.199,2-0.585,2.929
    c-0.386,0.928-0.953,1.772-1.667,2.483c-0.714,0.711-1.562,1.275-2.495,1.659C30.972,36.883,29.972,37.081,28.963,37.081z"/>
  <path
      style="fill:#1FBBEE;"
      d="M70.451,17.25h-2.674v9.829h2.674V17.25z"/>
  <path
      style="fill:#1FBBEE;"
      d="M86.729,18.263c-0.29-0.393-0.674-0.709-1.116-0.919c-0.524-0.241-1.096-0.359-1.673-0.347
    c-0.667-0.017-1.327,0.137-1.917,0.448c-0.49,0.281-0.903,0.677-1.203,1.155c-0.544-1.065-1.551-1.603-2.994-1.603
    c-0.704-0.034-1.4,0.161-1.984,0.555c-0.319,0.235-0.598,0.52-0.826,0.843V17.25h-2.555v9.829h2.674v-5.353
    c-0.001-0.295,0.038-0.589,0.115-0.874c0.066-0.261,0.185-0.507,0.349-0.722c0.168-0.21,0.381-0.38,0.624-0.496
    c0.295-0.131,0.615-0.194,0.938-0.184c0.213-0.022,0.428,0.008,0.626,0.09c0.198,0.081,0.372,0.21,0.507,0.375
    c0.253,0.398,0.375,0.865,0.349,1.336v5.829h2.677v-5.312c0-0.293,0.035-0.586,0.105-0.871c0.067-0.268,0.185-0.52,0.349-0.742
    c0.152-0.215,0.353-0.391,0.586-0.513c0.27-0.134,0.57-0.2,0.871-0.191c0.278-0.011,0.554,0.045,0.805,0.163
    c0.197,0.1,0.364,0.249,0.484,0.434c0.128,0.204,0.215,0.43,0.258,0.666c0.052,0.269,0.078,0.542,0.077,0.815v5.551h2.674V21.25
    c0.002-0.55-0.058-1.098-0.181-1.634c-0.11-0.487-0.318-0.947-0.61-1.353"/>
  <path
      style="fill:#1FBBEE;"
      d="M98.939,22.344c0.008-0.768-0.11-1.532-0.349-2.262c-0.197-0.614-0.518-1.181-0.941-1.669
    c-0.402-0.451-0.902-0.807-1.461-1.041c-0.595-0.24-1.233-0.358-1.875-0.347c-0.714-0.005-1.423,0.119-2.092,0.368
    c-0.631,0.228-1.208,0.582-1.695,1.042c-0.487,0.46-0.874,1.014-1.135,1.629c-0.287,0.669-0.431,1.389-0.422,2.116
    c-0.009,0.726,0.135,1.446,0.422,2.113c0.262,0.615,0.648,1.17,1.135,1.63c0.487,0.46,1.064,0.814,1.695,1.042
    c0.669,0.248,1.378,0.373,2.092,0.368c0.767,0,1.526-0.155,2.231-0.454c0.757-0.341,1.416-0.863,1.921-1.52l0.094-0.118
    l-1.935-1.485l-0.091,0.111c-0.289,0.353-0.635,0.654-1.025,0.892c-0.433,0.243-0.925,0.363-1.422,0.347
    c-0.594,0.014-1.173-0.186-1.631-0.562c-0.421-0.361-0.691-0.864-0.76-1.412h7.244V22.344z M91.699,21.064
    c0.083-0.523,0.327-1.008,0.697-1.388c0.214-0.197,0.466-0.349,0.74-0.448c0.274-0.098,0.566-0.141,0.857-0.125
    c0.607-0.037,1.205,0.166,1.663,0.566c0.37,0.37,0.587,0.866,0.607,1.388L91.699,21.064z"/>
  <path
      style="fill:#1FBBEE;"
      d="M65.861,17.051c-0.151-0.028-0.303-0.042-0.457-0.042c-0.622-0.009-1.233,0.157-1.764,0.479
    c-0.38,0.237-0.703,0.553-0.948,0.926v-1.166h-2.674v9.829h2.674v-5.253c0.006-0.191,0.035-0.381,0.087-0.566
    c0.07-0.267,0.188-0.518,0.349-0.742c0.193-0.27,0.441-0.496,0.728-0.663c0.388-0.209,0.825-0.308,1.265-0.288
    c0.181,0.001,0.362,0.017,0.54,0.049c0.188,0.031,0.383,0.076,0.575,0.125l0.181,0.049v-2.606l-0.108-0.031
    c-0.15-0.038-0.293-0.073-0.436-0.101"/>
  <path
      style="fill:#1FBBEE;"
      d="M105.436,17.024c-1.022,0-2.021,0.302-2.87,0.867c-0.85,0.565-1.512,1.368-1.903,2.307
    c-0.391,0.94-0.493,1.973-0.294,2.971c0.199,0.997,0.691,1.914,1.414,2.633c0.723,0.719,1.643,1.209,2.645,1.407
    c1.002,0.198,2.041,0.097,2.985-0.293c0.944-0.389,1.751-1.048,2.318-1.894c0.568-0.846,0.871-1.84,0.871-2.857
    c0-1.364-0.544-2.671-1.513-3.636C108.12,17.566,106.806,17.024,105.436,17.024z M105.436,24.82c-0.528,0-1.045-0.156-1.484-0.448
    c-0.439-0.292-0.781-0.707-0.983-1.193c-0.202-0.486-0.255-1.02-0.151-1.536c0.103-0.516,0.358-0.989,0.732-1.361
    c0.374-0.372,0.85-0.624,1.368-0.727c0.518-0.102,1.055-0.049,1.543,0.153c0.488,0.202,0.905,0.543,1.198,0.98
    c0.293,0.437,0.449,0.952,0.448,1.477c-0.001,0.704-0.283,1.379-0.783,1.877C106.822,24.541,106.143,24.82,105.436,24.82z"/>
  <path
      style="fill:#1FBBEE;"
      d="M53.309,16.973c-1.372,0.001-2.688,0.544-3.658,1.509c-0.97,0.965-1.516,2.274-1.518,3.64v7.851
    h2.573v-3.407c0.686,0.399,1.456,0.636,2.249,0.692c0.793,0.056,1.588-0.072,2.324-0.372c0.736-0.3,1.392-0.765,1.918-1.358
    c0.526-0.593,0.907-1.299,1.115-2.063c0.207-0.764,0.235-1.565,0.081-2.341c-0.154-0.776-0.486-1.507-0.97-2.135
    c-0.484-0.628-1.106-1.136-1.82-1.486C54.889,17.153,54.104,16.971,53.309,16.973z M53.309,24.782c-0.529,0-1.046-0.156-1.485-0.448
    c-0.44-0.292-0.782-0.708-0.985-1.194c-0.202-0.486-0.255-1.021-0.152-1.538c0.103-0.516,0.358-0.99,0.732-1.362
    c0.374-0.372,0.85-0.626,1.369-0.728c0.519-0.103,1.056-0.05,1.545,0.151c0.488,0.201,0.906,0.542,1.2,0.98
    c0.294,0.438,0.451,0.952,0.451,1.478c0.001,0.35-0.068,0.697-0.201,1.021c-0.134,0.324-0.331,0.619-0.579,0.867
    s-0.543,0.446-0.868,0.581c-0.325,0.135-0.673,0.205-1.025,0.206V24.782z"/>
  <path
      style="fill:#1FBBEE;"
      d="M69.093,13.14c-0.214-0.004-0.426,0.034-0.626,0.112c-0.199,0.078-0.381,0.194-0.535,0.342
    c-0.154,0.148-0.277,0.325-0.362,0.52c-0.085,0.195-0.13,0.406-0.134,0.619c-0.001,0.209,0.04,0.416,0.121,0.609
    c0.081,0.193,0.2,0.368,0.349,0.515c0.154,0.156,0.339,0.279,0.543,0.361c0.204,0.082,0.423,0.121,0.642,0.114
    c0.444,0.012,0.874-0.15,1.199-0.451c0.161-0.145,0.288-0.322,0.373-0.521c0.085-0.198,0.127-0.412,0.122-0.628
    c0.005-0.216-0.036-0.431-0.122-0.629c-0.085-0.199-0.213-0.377-0.373-0.522c-0.326-0.299-0.756-0.461-1.199-0.451"/>
  <path
      style="fill:#1FBBEE;"
      d="M29.16,23.876v5.742c1.768,0,3.518-0.347,5.152-1.02c1.633-0.673,3.117-1.66,4.368-2.904
    c1.25-1.244,2.242-2.721,2.918-4.347c0.676-1.626,1.025-3.368,1.025-5.127H36.85c0,2.03-0.81,3.977-2.252,5.413
    C33.156,23.068,31.2,23.875,29.16,23.876z"/>
  <path
      style="fill:#1D6750;"
      d="M57.446,37.175c0.006-0.768-0.111-1.532-0.349-2.262c-0.199-0.614-0.521-1.181-0.945-1.669
    c-0.403-0.451-0.902-0.807-1.461-1.041c-0.594-0.24-1.231-0.358-1.872-0.347c-0.714-0.005-1.423,0.12-2.092,0.368
    c-0.626,0.229-1.198,0.582-1.681,1.039c-0.483,0.457-0.867,1.008-1.128,1.618c-0.287,0.669-0.431,1.389-0.422,2.116
    c-0.007,0.726,0.137,1.445,0.422,2.113c0.263,0.615,0.651,1.169,1.138,1.629c0.488,0.46,1.065,0.814,1.696,1.043
    c0.669,0.248,1.378,0.373,2.092,0.368c0.763,0.002,1.518-0.15,2.221-0.448c0.755-0.339,1.413-0.859,1.917-1.513l0.094-0.118
    l-1.938-1.467l-0.091,0.107c-0.289,0.353-0.635,0.654-1.025,0.892c-0.433,0.244-0.925,0.364-1.422,0.347
    c-0.594,0.014-1.173-0.186-1.631-0.562c-0.422-0.359-0.696-0.861-0.767-1.409h7.244V37.175z M50.206,35.898
    c0.082-0.524,0.325-1.009,0.697-1.388c0.214-0.198,0.465-0.35,0.74-0.449c0.274-0.099,0.566-0.142,0.857-0.127
    c0.607-0.037,1.205,0.166,1.663,0.565c0.371,0.374,0.587,0.873,0.603,1.398H50.206z"/>
  <path
      style="fill:#1D6750;"
      d="M65.348,41.91h2.674v-6.165c0.002-0.489-0.059-0.977-0.181-1.45
    c-0.119-0.454-0.331-0.878-0.624-1.246c-0.307-0.372-0.694-0.671-1.133-0.874c-0.527-0.24-1.101-0.358-1.68-0.347
    c-0.702-0.036-1.396,0.16-1.973,0.559c-0.327,0.242-0.611,0.538-0.84,0.874v-1.18h-2.555v9.829h2.674v-5.35
    c-0.001-0.296,0.037-0.592,0.115-0.878c0.067-0.261,0.185-0.507,0.349-0.722c0.168-0.21,0.381-0.379,0.624-0.496
    c0.294-0.131,0.615-0.194,0.938-0.184c0.315-0.016,0.625,0.074,0.882,0.257c0.22,0.175,0.39,0.405,0.492,0.666
    c0.107,0.28,0.174,0.573,0.199,0.871c0.024,0.319,0.038,0.614,0.038,0.874v4.961"/>
  <path
      style="fill:#1D6750;"
      d="M79.419,37.175c0.006-0.768-0.111-1.532-0.349-2.262c-0.198-0.614-0.519-1.182-0.945-1.669
    c-0.402-0.452-0.901-0.808-1.461-1.041c-0.594-0.24-1.231-0.358-1.872-0.347c-0.714-0.005-1.423,0.12-2.091,0.368
    c-0.631,0.228-1.208,0.582-1.695,1.042c-0.487,0.46-0.874,1.014-1.136,1.629c-0.558,1.355-0.558,2.874,0,4.229
    c0.262,0.615,0.648,1.17,1.136,1.629c0.487,0.46,1.064,0.814,1.695,1.042c0.669,0.248,1.378,0.373,2.091,0.368
    c0.763,0.002,1.519-0.15,2.221-0.447c0.761-0.341,1.425-0.866,1.931-1.527l0.098-0.118l-1.942-1.467l-0.091,0.107
    c-0.289,0.353-0.635,0.654-1.025,0.892c-0.433,0.244-0.925,0.364-1.422,0.347c-0.594,0.014-1.173-0.186-1.632-0.562
    c-0.417-0.361-0.686-0.863-0.756-1.409h7.244V37.175z M72.179,35.898c0.083-0.523,0.326-1.008,0.697-1.388
    c0.214-0.198,0.465-0.35,0.739-0.449c0.274-0.099,0.566-0.142,0.857-0.127c0.608-0.036,1.207,0.167,1.666,0.565
    c0.37,0.374,0.584,0.873,0.6,1.398H72.179z"/>
  <path
      style="fill:#1D6750;"
      d="M87.174,34.576l0.185,0.049v-2.609l-0.108-0.028c-0.15-0.042-0.293-0.076-0.439-0.104
    c-0.149-0.028-0.301-0.042-0.453-0.042c-0.621-0.009-1.233,0.157-1.764,0.479c-0.381,0.237-0.704,0.555-0.948,0.93v-1.169h-2.674
    v9.829h2.674v-5.253c0.01-0.19,0.039-0.378,0.087-0.562c0.069-0.268,0.187-0.521,0.349-0.746c0.193-0.27,0.441-0.496,0.729-0.663
    c0.388-0.207,0.826-0.305,1.265-0.284c0.181,0,0.362,0.015,0.54,0.045c0.185,0.035,0.38,0.076,0.572,0.128"/>
  <path
      style="fill:#1D6750;"
      d="M95.867,32.083v0.59c-0.96-0.623-2.105-0.901-3.246-0.79c-1.141,0.112-2.209,0.607-3.029,1.404
    c-0.732,0.708-1.237,1.616-1.449,2.61c-0.212,0.994-0.122,2.028,0.258,2.971c0.38,0.943,1.033,1.752,1.877,2.324
    c0.843,0.572,1.839,0.882,2.86,0.89c0.899-0.001,1.781-0.24,2.555-0.694v0.062c-0.005,0.795-0.321,1.557-0.882,2.123
    c-0.282,0.282-0.618,0.506-0.987,0.659c-0.369,0.153-0.765,0.231-1.166,0.231c-0.4,0-0.796-0.079-1.166-0.231
    c-0.369-0.153-0.705-0.377-0.987-0.659l-0.105-0.104l-1.809,1.797l0.101,0.104c0.518,0.518,1.134,0.929,1.813,1.21
    c0.678,0.281,1.406,0.425,2.14,0.425c0.735,0,1.462-0.144,2.14-0.425c0.678-0.281,1.294-0.692,1.813-1.21
    c1.039-1.044,1.623-2.452,1.628-3.92v-9.367H95.86H95.867z M95.139,38.629c-0.341,0.418-0.805,0.72-1.326,0.864
    s-1.075,0.124-1.584-0.059s-0.949-0.518-1.258-0.96c-0.309-0.442-0.473-0.969-0.468-1.507c-0.002-0.343,0.065-0.684,0.196-1.002
    c0.131-0.318,0.324-0.606,0.568-0.85c0.244-0.243,0.533-0.436,0.852-0.567c0.319-0.131,0.661-0.198,1.006-0.197
    c0.173,0.001,0.346,0.017,0.516,0.049c0.503,0.102,0.964,0.349,1.326,0.71c0.362,0.362,0.609,0.822,0.709,1.323
    c0.08,0.382,0.074,0.776-0.018,1.155c-0.092,0.379-0.267,0.733-0.512,1.037L95.139,38.629z"/>
  <path
      style="fill:#1D6750;"
      d="M114.318,37.126c0.006-0.768-0.111-1.531-0.349-2.262c-0.199-0.614-0.52-1.182-0.945-1.669
    c-0.402-0.451-0.901-0.807-1.461-1.041c-0.594-0.24-1.231-0.358-1.872-0.347c-0.714-0.005-1.423,0.12-2.092,0.368
    c-0.631,0.228-1.208,0.582-1.695,1.042c-0.487,0.46-0.874,1.014-1.135,1.629c-0.558,1.355-0.558,2.874,0,4.229
    c0.262,0.615,0.648,1.17,1.135,1.63c0.487,0.46,1.064,0.814,1.695,1.042c0.669,0.248,1.378,0.372,2.092,0.368
    c0.763,0,1.518-0.152,2.22-0.447c0.757-0.337,1.417-0.857,1.921-1.513l0.098-0.118l-1.942-1.468l-0.091,0.108
    c-0.287,0.353-0.633,0.654-1.021,0.892c-0.434,0.244-0.927,0.364-1.426,0.347c-0.594,0.014-1.173-0.186-1.631-0.562
    c-0.419-0.362-0.69-0.864-0.76-1.412h7.244v-0.815H114.318z M107.077,35.849c0.082-0.523,0.325-1.009,0.697-1.388
    c0.214-0.197,0.465-0.35,0.74-0.449c0.274-0.099,0.566-0.142,0.857-0.127c0.608-0.036,1.207,0.167,1.666,0.566
    c0.374,0.376,0.589,0.88,0.603,1.409L107.077,35.849z"/>
  <path
      style="fill:#1D6750;"
      d="M102.916,32.084h-2.674v9.829h2.674V32.084z"/>
  <path
      style="fill:#1D6750;"
      d="M102.758,30.725c0.156-0.148,0.281-0.326,0.366-0.524c0.085-0.197,0.129-0.41,0.129-0.625
    s-0.044-0.427-0.129-0.625c-0.085-0.197-0.209-0.376-0.366-0.524c-0.325-0.302-0.755-0.465-1.199-0.454
    c-0.22-0.006-0.439,0.033-0.643,0.115c-0.204,0.082-0.389,0.206-0.542,0.364c-0.149,0.147-0.268,0.322-0.349,0.515
    c-0.081,0.193-0.123,0.4-0.123,0.609s0.042,0.416,0.123,0.609c0.081,0.193,0.199,0.368,0.349,0.515
    c0.154,0.157,0.339,0.28,0.542,0.362c0.204,0.082,0.423,0.122,0.643,0.116C102.003,31.19,102.434,31.027,102.758,30.725z"/>
</svg>
